# xmcd
#
# Track frame offsets:
#  150
#  16580
#  35746
#  50493
#  68347
#  83510
#  104681
#  120709
#  133331
#  143768
#  158341
#
# Disc length: 2335 seconds
#
# Revision: 0
# Processed by: cddbd v1.5.1PL2 Copyright (c) Steve Scherf et al.
# Submitted via: Collectorz.com_Music_Collector 6.11
#
DISCID=87091d0b
DTITLE=Roseline - A Wall Behind It
DYEAR=2006
DGENRE=Americana
TTITLE0=Busy House
TTITLE1=Shakin' Shorts
TTITLE2=Blanket
TTITLE3=Cold Light, Cold Air
TTITLE4=Evil
TTITLE5=Laundromat
TTITLE6=Over You
TTITLE7=Fall
TTITLE8=W.
TTITLE9=Bring Me Calm
TTITLE10=Coming Home
EXTD=
EXTT0=
EXTT1=
EXTT2=
EXTT3=
EXTT4=
EXTT5=
EXTT6=
EXTT7=
EXTT8=
EXTT9=
EXTT10=
PLAYORDER=
